<svg id="Layer_1" data-name="Layer 1" xmlns="http://www.w3.org/2000/svg" viewBox="0 0 1244 1257.85"><defs><style>.cls-1{fill:#252d40;}</style></defs><title>logo_main</title><path class="cls-1" d="M1651.68,854c8-10.35,16.48-19.9,23.37-30.48,15.1-23.2,21-49.52,21.83-76.7.8-25.48-.25-51-.81-76.53a15.31,15.31,0,0,0-3.44-9.08c-2.54-2.88-3-5.33-2.37-8.91,8-44.64-2.58-84.88-29.14-121.22-22.31-30.52-51.13-53.8-83.68-72.21-38.79-21.94-78.92-41.33-120.93-56.43-20.91-7.52-42.48-12.69-65-12.42-29.74.36-53.61,12.15-70.49,36.91-12.37,18.14-21,37.84-21.11,60.23,0,7.56,1.76,15.14,2.84,22.69.48,3.29,1.53,6.51,1.89,9.82.85,7.66-1.12,10.14-8.79,10.57-9.21.51-18.43.76-27.65.82s-16.72,3.88-23.65,9.29c-36.43,28.43-48.72,65.71-39.39,110.3,6.38,30.5,20.92,57.57,39,82.47,14.88,20.45,31.45,39.66,47.08,59.57,1.9,2.43,2.55,5.81,3.89,8.7,1.72,3.66,2.78,8,5.44,10.8,32.41,33.87,46.46,75.82,53.5,120.82,6.2,39.7,6.39,79.74,6.77,119.82.46,48.09,1.84,96.19,3.64,144.25q1.93,51.47,6.18,102.84a335.67,335.67,0,0,0,20.62,90.45c.34.89.52,1.85,1,3.58-78.85,27.63-159.74,39-242.06,34.13-.67-10.08-.16-19.94-2.19-29.25-4.5-20.7-16.6-36.5-35.94-45.37-18.42-8.44-35.4-18.5-49.39-33.34-24.37-25.85-34.31-57.08-34.46-91.92-.15-35.15,0-70.3,0-105.45,0-16.29-.12-32.59.14-48.89,0-2.28,1.32-5.47,3.09-6.67,38.19-25.76,61.7-62.44,78-104.47,13.25-34.2,18.37-70.07,21.25-106.37,1.47-18.47-4-34.83-15.06-49.69,19.17-15.57,36-33,49.53-53.53,24-36.62,35.73-76.92,36.31-120.58a27.35,27.35,0,0,0-6.69-18.39c-15-18.08-28.41-37.3-34.73-60.24-3.4-12.38-4.86-25.31-6.91-38-.68-4.23-.23-8.64-.75-12.91-1.46-11.89-7.83-21-16.27-29.17-38-36.77-83.21-58.27-135.86-63.79-5-.52-6.84-2.08-6.8-7.48.26-37.5.15-75,.12-112.51,0-2.74-.21-5.49-.46-8.22-.57-6.31-4.39-10-10.21-11.45s-10.66.21-14.29,5.49Q934,326.29,899.15,376.61c-17.25,25-34.38,50.14-51.77,75.07-2.41,3.46-5.86,6.29-9.15,9-38.49,32-64.16,72.3-73.53,121.43-13.14,68.93-.46,133,43.43,188.86,11.39,14.51,26.27,26.28,39.64,39.21,2.24,2.16,5,3.82,7.91,6.06-1.12,2-2.08,3.88-3.13,5.68-14.25,24.17-29.19,48-42.61,72.6-17.64,32.39-42.86,58-70.51,81.42-37,31.3-74.82,61.69-112.29,92.46a16.6,16.6,0,0,1-2.37,1.17c-6.45-15.68-13.29-31.07-19.18-46.82-28.85-77.17-43.1-157.06-40-239.36,7.12-185.53,79.69-340.87,219.84-463,87.2-76,188.94-123.46,303.42-141,183.6-28,348.49,17,492.06,134.38,112.87,92.3,183.1,211.88,214.21,354.3,12.39,56.72,16.28,114.13,12.86,172.07-.25,4.27-1.26,5.84-6,6.27-28.13,2.55-56.21,5.68-84.32,8.45C1695.6,857.06,1673.5,857.55,1651.68,854Z" transform="translate(-565.21 -171.33)"/><path class="cls-1" d="M963,329.82v7.28q0,41.52,0,83c0,13,4.29,17,17.34,17.27,45.48,1,85.42,16.68,120.28,45.69.9.75,1.7,1.66,2.66,2.32,13.8,9.37,19.6,21.59,19.77,39,.29,29.67,11.89,56.56,27.6,81.48,5.22,8.28,11.6,15.81,17.12,23.91a14.38,14.38,0,0,1,2.63,7.89c-1.19,46.07-16.86,86.83-47,121.49-10.46,12-23.48,21.81-35.27,32.69-3,2.76-6.36,5.41-8.45,8.79-3.74,6.08-2.24,12.67,3.84,17.16,13.55,10,19.14,23.08,17.68,39.83-3.22,36.73-9.35,72.77-24.31,106.79-12.16,27.65-28.36,52.46-52,71.81a76.65,76.65,0,0,1-16.17,10.65c-7.68,3.51-10.06,9.19-10,16.91.08,23,0,46,0,68.92q0,45.95,0,91.89c-.05,37.48,10,71.77,33,101.63,14.9,19.35,33.22,34.92,55.32,45.74,4.05,2,8.19,3.78,12.24,5.79a39,39,0,0,1,20.67,42.88c-.8,3.79-2.74,4.41-6.27,4a568.49,568.49,0,0,1-108-23c-162.55-52.22-284.28-153.86-366.23-303.47-2.29-4.17-2.64-6.7,1.58-10.17q51.43-42.21,102.42-85c23.12-19.51,45.54-39.85,63.7-64.29a264.17,264.17,0,0,0,14.6-22.08Q851,868,879.79,819c6.61-11.15,5.22-17.15-5.53-24.14-47.26-30.76-77.58-73.26-87.83-129C776,609.06,788.74,557.4,824.55,512.11c10-12.65,22.86-23,34.34-34.52a55.79,55.79,0,0,0,6.58-7.43q46.62-67.25,93.13-134.58C959.65,334.06,960.84,332.64,963,329.82Z" transform="translate(-565.21 -171.33)"/><path class="cls-1" d="M1804.82,875.51c-1.81,12-3.26,23.46-5.27,34.78a638.91,638.91,0,0,1-61.77,182.62c-2.22,4.28-4.66,5.81-9.44,5.79-22.26-.11-44.26-2.16-65.94-7.32-12-2.85-17.2.51-19.8,12.5q-16.47,76-32.86,151.93c-1.12,5.26-3.24,9.4-7.45,12.8-16.17,13.08-32.2,26.34-48.3,39.5-1.47,1.19-3.14,2.12-5.54,3.73-.18-3.1-.48-5.37-.42-7.64.85-33.17,2-66.33,2.57-99.5.55-30.42-2.13-60.48-13.84-89-3.49-8.5-8-16.58-12.29-24.75-3.64-7-9.5-10.26-17.43-9.32s-12.86,5.55-15.08,13-4.26,14.72-5.91,22.19c-13.74,62.27-27.31,124.58-41.12,186.84-2.16,9.75-5,19.4-8.07,28.89-2.7,8.2-9.57,9.82-15,3.1-4.22-5.18-7.91-11.53-9.54-17.94-3.89-15.37-7.8-31-9.21-46.68q-4.29-47.76-5.82-95.78c-2.14-63.77-2.83-127.59-5.34-191.34-1.78-45.25-8.26-89.92-24.48-132.65a212.54,212.54,0,0,0-36.71-62.7c-4.83-5.69-10.52-9.22-18.22-9.25a5.6,5.6,0,0,1-4-2.23c-15.62-24.47-31.63-48.73-46.48-73.67-11.42-19.2-22.62-38.89-25.8-61.5-3.75-26.59,2.74-50.2,22.86-69.19,14.69-13.87,31.87-18.28,51.09-13.06,10.06,2.73,19.53.78,28.93-1.48,9-2.17,13.93-11.42,12.06-20.85-2.82-14.24-6.21-28.38-8.91-42.64a102.2,102.2,0,0,1-1.71-18.73c-.09-28.11,14.94-45.45,42.64-50.55,20.3-3.73,39.94-1.25,59,5.66A320.26,320.26,0,0,1,1480,447.17c33.44,17.29,67.72,33.13,98.36,55.42,39.7,28.88,72.89,63.34,93,108.86,4.42,10,7.51,20.63,11.05,31,.91,2.69,1.16,5.6,1.83,8.94l-3.53-.44c-13.51-1.85-22.34,5.94-21.4,19.44,1.09,15.85,2.84,31.67,4,47.52,1.49,20.26,1.17,40.47-4,60.27-7.67,29.32-25.07,51.18-51.77,65.42-19.36,10.33-40.48,4.84-53.94-13.89s-16.33-39.9-10.93-61.79c4.89-19.78,11.76-39.07,17.1-58.75,12.13-44.71,14.53-90.16,9.25-136.07a17.16,17.16,0,0,0-2.3-7.16c-3.23-5-8-7.63-14-6.54-5.77,1-7.75,5.69-8.47,10.77-2.33,16.52-5,33-6.59,49.61a735,735,0,0,1-26.92,139.07c-6.38,21.7-10.1,44.14-6.8,66.92,4.21,29,18,51.43,46.71,61.81,18.11,6.55,35.62,1.91,52.51-5.53,5-2.21,9.72-5.12,14.68-7.46,1.37-.65,4-1.16,4.63-.46,6.12,6.42,14.44,6.9,22.23,8.22,23.6,4,47.32,3.22,71,1q41.29-3.92,82.6-7.8C1800.17,875.36,1802.1,875.51,1804.82,875.51ZM1397.27,629.33c-.2-12.32-3.55-21.41-11.3-28.16a339.3,339.3,0,0,0-29-22.91c-3-2-8.36-2-12.13-1.06-6.44,1.69-10.75,9.41-10.73,16.69s4.06,11.49,10.23,14.35c9.39,4.35,18.57,9.17,28.13,13.07C1380.18,624.43,1388.3,626.47,1397.27,629.33Z" transform="translate(-565.21 -171.33)"/><path class="cls-1" d="M1467.69,1362c15.83-67.47,31.55-134.51,47.55-202.68a245.57,245.57,0,0,1,6,57.56c-.23,34.33-1.7,68.66-1.53,103,0,9.39-2.51,14.52-10.64,18.73C1494.87,1345.92,1481.21,1354.26,1467.69,1362Z" transform="translate(-565.21 -171.33)"/><path class="cls-1" d="M1722.64,1120.05a625.69,625.69,0,0,1-80,108.44l-1.46-.55c1.84-13.29,3-26.72,5.69-39.85,3.14-15.51,7-30.93,11.56-46.08,4.11-13.66,13.54-21.8,28.51-21.94C1698.4,1120,1709.88,1120.05,1722.64,1120.05Z" transform="translate(-565.21 -171.33)"/></svg>